<?xml version="1.0" ?><svg height="48px" version="1.1" viewBox="0 0 48 48" width="48px" xmlns="http://www.w3.org/2000/svg" xmlns:xlink="http://www.w3.org/1999/xlink"><title/><g fill="none" fill-rule="evenodd" id="arrow-down-up" stroke="none" stroke-width="1"><path d="M15.0870702,15.2226499 L15.0465297,15.2953753 C14.9004021,15.6162383 15.1322725,16 15.5030954,16 L21.003,16 L21.003,32 L15.5030954,32 C15.1037477,32 14.865552,32.4450727 15.0870702,32.7773501 L23.0870702,44.7773501 C23.2849812,45.0742166 23.7212095,45.0742166 23.9191205,44.7773501 L31.9191205,32.7773501 L31.9596611,32.7046247 C32.1057886,32.3837617 31.8739182,32 31.5030954,32 L26.003,32 L26.003,16 L31.5030954,16 C31.9024431,16 32.1406388,15.5549273 31.9191205,15.2226499 L23.9191205,3.2226499 C23.7212095,2.92578337 23.2849812,2.92578337 23.0870702,3.2226499 L15.0870702,15.2226499 Z" fill="#000000" fill-rule="nonzero" id="Path" transform="translate(23.503095, 24.000000) scale(1, -1) translate(-23.503095, -24.000000) "/></g></svg>